<svg id="visual" viewBox="0 0 900 600" width="900" height="600" xmlns="http://www.w3.org/2000/svg" xmlns:xlink="http://www.w3.org/1999/xlink" version="1.1"><g stroke-width="1" stroke-linejoin="bevel"><path d="M469.5 284L501.4 221L458.5 238Z" fill="#090909" stroke="#090909"></path><path d="M469.5 284L574.4 276L501.4 221Z" fill="#1f1f1f" stroke="#1f1f1f"></path><path d="M501.4 221L473.5 179L458.5 238Z" fill="#000000" stroke="#000000"></path><path d="M490.5 329L505.5 334L469.5 284Z" fill="#1a1a1a" stroke="#1a1a1a"></path><path d="M574.4 276L550.4 198L501.4 221Z" fill="#0d0d0d" stroke="#0d0d0d"></path><path d="M501.4 221L544.4 163L473.5 179Z" fill="#1f1f1f" stroke="#1f1f1f"></path><path d="M473.5 179L444.5 185L458.5 238Z" fill="#1f1f1f" stroke="#1f1f1f"></path><path d="M401.6 289L417.5 304L469.5 284Z" fill="#000000" stroke="#000000"></path><path d="M490.5 329L504.4 337L505.5 334Z" fill="#1a1a1a" stroke="#1a1a1a"></path><path d="M544.4 163L473.5 172L473.5 179Z" fill="#000000" stroke="#000000"></path><path d="M473.5 179L473.5 172L444.5 185Z" fill="#040404" stroke="#040404"></path><path d="M576.4 333L574.4 276L505.5 334Z" fill="#131313" stroke="#131313"></path><path d="M505.5 334L574.4 276L469.5 284Z" fill="#040404" stroke="#040404"></path><path d="M401.6 289L469.5 284L458.5 238Z" fill="#131313" stroke="#131313"></path><path d="M469.5 284L434.5 330L490.5 329Z" fill="#040404" stroke="#040404"></path><path d="M490.5 329L504.4 353L504.4 337Z" fill="#0d0d0d" stroke="#0d0d0d"></path><path d="M417.5 304L434.5 330L469.5 284Z" fill="#0d0d0d" stroke="#0d0d0d"></path><path d="M377.6 233L401.6 289L458.5 238Z" fill="#101010" stroke="#101010"></path><path d="M417.5 304L377.6 323L434.5 330Z" fill="#090909" stroke="#090909"></path><path d="M434.5 330L504.4 353L490.5 329Z" fill="#1f1f1f" stroke="#1f1f1f"></path><path d="M504.4 337L504.4 353L505.5 334Z" fill="#040404" stroke="#040404"></path><path d="M574.4 276L566.4 190L550.4 198Z" fill="#040404" stroke="#040404"></path><path d="M550.4 198L544.4 163L501.4 221Z" fill="#1f1f1f" stroke="#1f1f1f"></path><path d="M566.4 190L544.4 163L550.4 198Z" fill="#181818" stroke="#181818"></path><path d="M473.5 172L450.5 152L444.5 185Z" fill="#040404" stroke="#040404"></path><path d="M444.5 185L377.6 233L458.5 238Z" fill="#090909" stroke="#090909"></path><path d="M441.5 124L450.5 152L530.4 118Z" fill="#0d0d0d" stroke="#0d0d0d"></path><path d="M357.6 170L377.6 233L444.5 185Z" fill="#1d1d1d" stroke="#1d1d1d"></path><path d="M504.4 353L576.4 333L505.5 334Z" fill="#1d1d1d" stroke="#1d1d1d"></path><path d="M377.6 233L377.6 323L401.6 289Z" fill="#161616" stroke="#161616"></path><path d="M401.6 289L377.6 323L417.5 304Z" fill="#131313" stroke="#131313"></path><path d="M434.5 330L475.5 402L504.4 353Z" fill="#040404" stroke="#040404"></path><path d="M530.4 118L450.5 152L473.5 172Z" fill="#1d1d1d" stroke="#1d1d1d"></path><path d="M450.5 152L404.6 135L444.5 185Z" fill="#1d1d1d" stroke="#1d1d1d"></path><path d="M580.4 87L530.4 118L544.4 163Z" fill="#181818" stroke="#181818"></path><path d="M544.4 163L530.4 118L473.5 172Z" fill="#1a1a1a" stroke="#1a1a1a"></path><path d="M566.4 384L608.3 335L576.4 333Z" fill="#040404" stroke="#040404"></path><path d="M576.4 333L608.3 335L574.4 276Z" fill="#0d0d0d" stroke="#0d0d0d"></path><path d="M574.4 276L658.3 229L566.4 190Z" fill="#090909" stroke="#090909"></path><path d="M441.5 124L404.6 135L450.5 152Z" fill="#131313" stroke="#131313"></path><path d="M435.5 404L475.5 402L434.5 330Z" fill="#1f1f1f" stroke="#1f1f1f"></path><path d="M504.4 353L566.4 384L576.4 333Z" fill="#1d1d1d" stroke="#1d1d1d"></path><path d="M608.3 335L636.3 278L574.4 276Z" fill="#040404" stroke="#040404"></path><path d="M626.3 112L580.4 87L544.4 163Z" fill="#161616" stroke="#161616"></path><path d="M540.4 435L566.4 384L504.4 353Z" fill="#1a1a1a" stroke="#1a1a1a"></path><path d="M404.6 135L357.6 170L444.5 185Z" fill="#000000" stroke="#000000"></path><path d="M377.6 233L292.6 288L377.6 323Z" fill="#040404" stroke="#040404"></path><path d="M360.6 397L435.5 404L434.5 330Z" fill="#0d0d0d" stroke="#0d0d0d"></path><path d="M636.3 278L658.3 229L574.4 276Z" fill="#0d0d0d" stroke="#0d0d0d"></path><path d="M658.3 229L662.2 220L566.4 190Z" fill="#181818" stroke="#181818"></path><path d="M530.4 118L455.5 81L441.5 124Z" fill="#1a1a1a" stroke="#1a1a1a"></path><path d="M441.5 124L381.6 98L404.6 135Z" fill="#181818" stroke="#181818"></path><path d="M350.6 129L333.6 161L357.6 170Z" fill="#1f1f1f" stroke="#1f1f1f"></path><path d="M350.6 129L357.6 170L404.6 135Z" fill="#090909" stroke="#090909"></path><path d="M357.6 170L293.7 221L377.6 233Z" fill="#1d1d1d" stroke="#1d1d1d"></path><path d="M540.4 435L566.4 422L566.4 384Z" fill="#181818" stroke="#181818"></path><path d="M661.3 385L657.3 337L608.3 335Z" fill="#090909" stroke="#090909"></path><path d="M608.3 335L657.3 337L636.3 278Z" fill="#131313" stroke="#131313"></path><path d="M540.4 435L504.4 353L475.5 402Z" fill="#1a1a1a" stroke="#1a1a1a"></path><path d="M661.3 385L608.3 335L566.4 384Z" fill="#1a1a1a" stroke="#1a1a1a"></path><path d="M636.3 278L675.2 316L658.3 229Z" fill="#0d0d0d" stroke="#0d0d0d"></path><path d="M658.3 229L728.2 221L662.2 220Z" fill="#161616" stroke="#161616"></path><path d="M503.5 444L540.4 435L475.5 402Z" fill="#0d0d0d" stroke="#0d0d0d"></path><path d="M540.4 435L541.4 435L566.4 422Z" fill="#101010" stroke="#101010"></path><path d="M381.6 98L350.6 129L404.6 135Z" fill="#101010" stroke="#101010"></path><path d="M435.5 404L503.5 444L475.5 402Z" fill="#090909" stroke="#090909"></path><path d="M540.4 435L562.4 480L541.4 435Z" fill="#1d1d1d" stroke="#1d1d1d"></path><path d="M626.3 112L544.4 163L566.4 190Z" fill="#1a1a1a" stroke="#1a1a1a"></path><path d="M530.4 118L501.4 50L455.5 81Z" fill="#131313" stroke="#131313"></path><path d="M455.5 81L381.6 98L441.5 124Z" fill="#131313" stroke="#131313"></path><path d="M377.6 323L360.6 397L434.5 330Z" fill="#181818" stroke="#181818"></path><path d="M435.5 404L410.5 479L503.5 444Z" fill="#1f1f1f" stroke="#1f1f1f"></path><path d="M320.6 385L360.6 397L377.6 323Z" fill="#1f1f1f" stroke="#1f1f1f"></path><path d="M657.3 337L675.2 316L636.3 278Z" fill="#131313" stroke="#131313"></path><path d="M541.4 435L568.4 436L566.4 422Z" fill="#131313" stroke="#131313"></path><path d="M566.4 422L661.3 385L566.4 384Z" fill="#000000" stroke="#000000"></path><path d="M562.4 480L568.4 436L541.4 435Z" fill="#131313" stroke="#131313"></path><path d="M654.2 140L626.3 112L566.4 190Z" fill="#0d0d0d" stroke="#0d0d0d"></path><path d="M280.6 216L293.7 221L294.6 169Z" fill="#090909" stroke="#090909"></path><path d="M333.6 161L293.7 221L357.6 170Z" fill="#1a1a1a" stroke="#1a1a1a"></path><path d="M293.7 221L292.6 288L377.6 233Z" fill="#1d1d1d" stroke="#1d1d1d"></path><path d="M676.2 176L654.2 140L662.2 220Z" fill="#1f1f1f" stroke="#1f1f1f"></path><path d="M662.2 220L654.2 140L566.4 190Z" fill="#161616" stroke="#161616"></path><path d="M555.4 37L553.4 64L580.4 87Z" fill="#1a1a1a" stroke="#1a1a1a"></path><path d="M580.4 87L553.4 64L530.4 118Z" fill="#1a1a1a" stroke="#1a1a1a"></path><path d="M728.2 221L676.2 176L662.2 220Z" fill="#1f1f1f" stroke="#1f1f1f"></path><path d="M553.4 64L501.4 50L530.4 118Z" fill="#090909" stroke="#090909"></path><path d="M455.5 81L448.5 52L381.6 98Z" fill="#1d1d1d" stroke="#1d1d1d"></path><path d="M481.5 47L448.5 52L455.5 81Z" fill="#000000" stroke="#000000"></path><path d="M676.2 176L663.3 140L654.2 140Z" fill="#161616" stroke="#161616"></path><path d="M654.2 140L661.3 75L626.3 112Z" fill="#0d0d0d" stroke="#0d0d0d"></path><path d="M501.4 50L481.5 47L455.5 81Z" fill="#000000" stroke="#000000"></path><path d="M294.6 169L293.7 221L333.6 161Z" fill="#040404" stroke="#040404"></path><path d="M293.7 221L280.6 216L292.6 288Z" fill="#1f1f1f" stroke="#1f1f1f"></path><path d="M298.7 147L333.6 161L350.6 129Z" fill="#000000" stroke="#000000"></path><path d="M298.7 147L294.6 169L333.6 161Z" fill="#131313" stroke="#131313"></path><path d="M292.6 288L320.6 385L377.6 323Z" fill="#0d0d0d" stroke="#0d0d0d"></path><path d="M510.4 509L562.4 480L503.5 444Z" fill="#1a1a1a" stroke="#1a1a1a"></path><path d="M616.3 475L661.3 385L566.4 422Z" fill="#0d0d0d" stroke="#0d0d0d"></path><path d="M684.2 371L703.2 315L675.2 316Z" fill="#1f1f1f" stroke="#1f1f1f"></path><path d="M294.7 77L298.7 147L350.6 129Z" fill="#131313" stroke="#131313"></path><path d="M294.6 169L257.7 198L280.6 216Z" fill="#161616" stroke="#161616"></path><path d="M294.7 77L350.6 129L381.6 98Z" fill="#090909" stroke="#090909"></path><path d="M684.2 371L675.2 316L657.3 337Z" fill="#131313" stroke="#131313"></path><path d="M675.2 316L703.2 315L658.3 229Z" fill="#1d1d1d" stroke="#1d1d1d"></path><path d="M661.3 385L684.2 371L657.3 337Z" fill="#131313" stroke="#131313"></path><path d="M553.4 64L555.4 37L501.4 50Z" fill="#040404" stroke="#040404"></path><path d="M501.4 50L504.5 0L481.5 47Z" fill="#1f1f1f" stroke="#1f1f1f"></path><path d="M585.4 0L555.4 37L607.3 0Z" fill="#1f1f1f" stroke="#1f1f1f"></path><path d="M661.3 75L580.4 87L626.3 112Z" fill="#181818" stroke="#181818"></path><path d="M410.5 479L435.5 404L396.6 476Z" fill="#1f1f1f" stroke="#1f1f1f"></path><path d="M503.5 444L562.4 480L540.4 435Z" fill="#0d0d0d" stroke="#0d0d0d"></path><path d="M568.4 436L616.3 475L566.4 422Z" fill="#101010" stroke="#101010"></path><path d="M661.3 385L698.2 424L684.2 371Z" fill="#090909" stroke="#090909"></path><path d="M195.8 267L262.7 322L292.6 288Z" fill="#0d0d0d" stroke="#0d0d0d"></path><path d="M292.6 288L262.7 322L320.6 385Z" fill="#161616" stroke="#161616"></path><path d="M396.6 476L435.5 404L360.6 397Z" fill="#131313" stroke="#131313"></path><path d="M226.8 182L257.7 198L224.8 175Z" fill="#090909" stroke="#090909"></path><path d="M280.6 216L195.8 267L292.6 288Z" fill="#131313" stroke="#131313"></path><path d="M312.6 440L396.6 476L360.6 397Z" fill="#0d0d0d" stroke="#0d0d0d"></path><path d="M401.5 484L396.6 476L337.6 519Z" fill="#090909" stroke="#090909"></path><path d="M703.2 315L728.2 221L658.3 229Z" fill="#1f1f1f" stroke="#1f1f1f"></path><path d="M676.2 176L722.2 162L663.3 140Z" fill="#1d1d1d" stroke="#1d1d1d"></path><path d="M312.6 440L360.6 397L320.6 385Z" fill="#1f1f1f" stroke="#1f1f1f"></path><path d="M396.6 476L401.5 484L410.5 479Z" fill="#0d0d0d" stroke="#0d0d0d"></path><path d="M454.5 515L510.4 509L503.5 444Z" fill="#040404" stroke="#040404"></path><path d="M684.2 76L661.3 75L663.3 140Z" fill="#101010" stroke="#101010"></path><path d="M663.3 140L661.3 75L654.2 140Z" fill="#040404" stroke="#040404"></path><path d="M404.6 0L373.6 35L448.5 52Z" fill="#040404" stroke="#040404"></path><path d="M448.5 52L373.6 35L381.6 98Z" fill="#161616" stroke="#161616"></path><path d="M224.8 175L257.7 198L294.6 169Z" fill="#0d0d0d" stroke="#0d0d0d"></path><path d="M504.5 0L448.5 52L481.5 47Z" fill="#101010" stroke="#101010"></path><path d="M728.2 221L722.2 162L676.2 176Z" fill="#161616" stroke="#161616"></path><path d="M562.4 480L616.3 475L568.4 436Z" fill="#161616" stroke="#161616"></path><path d="M454.5 515L503.5 444L410.5 479Z" fill="#101010" stroke="#101010"></path><path d="M596.4 578L648.3 527L616.3 475Z" fill="#1d1d1d" stroke="#1d1d1d"></path><path d="M560.4 0L504.5 0L555.4 37Z" fill="#000000" stroke="#000000"></path><path d="M555.4 37L504.5 0L501.4 50Z" fill="#1d1d1d" stroke="#1d1d1d"></path><path d="M294.6 422L312.6 440L320.6 385Z" fill="#1f1f1f" stroke="#1f1f1f"></path><path d="M248.7 386L294.6 422L320.6 385Z" fill="#1f1f1f" stroke="#1f1f1f"></path><path d="M486.5 559L454.5 515L444.5 600Z" fill="#000000" stroke="#000000"></path><path d="M401.5 484L454.5 515L410.5 479Z" fill="#161616" stroke="#161616"></path><path d="M722.2 162L684.2 76L663.3 140Z" fill="#1a1a1a" stroke="#1a1a1a"></path><path d="M585.4 0L560.4 0L555.4 37Z" fill="#0d0d0d" stroke="#0d0d0d"></path><path d="M373.6 35L294.7 77L381.6 98Z" fill="#1a1a1a" stroke="#1a1a1a"></path><path d="M555.4 37L580.4 87L607.3 0Z" fill="#000000" stroke="#000000"></path><path d="M616.3 475L698.2 424L661.3 385Z" fill="#1a1a1a" stroke="#1a1a1a"></path><path d="M684.2 371L764.2 336L703.2 315Z" fill="#040404" stroke="#040404"></path><path d="M784.1 229L765.2 190L728.2 221Z" fill="#101010" stroke="#101010"></path><path d="M504.5 0L404.6 0L448.5 52Z" fill="#131313" stroke="#131313"></path><path d="M373.6 35L292.6 21L294.7 77Z" fill="#1a1a1a" stroke="#1a1a1a"></path><path d="M607.3 0L580.4 87L661.3 75Z" fill="#1d1d1d" stroke="#1d1d1d"></path><path d="M404.6 0L394.5 0L373.6 35Z" fill="#000000" stroke="#000000"></path><path d="M224.8 175L294.6 169L298.7 147Z" fill="#0d0d0d" stroke="#0d0d0d"></path><path d="M257.7 198L195.8 267L280.6 216Z" fill="#000000" stroke="#000000"></path><path d="M262.7 322L248.7 386L320.6 385Z" fill="#181818" stroke="#181818"></path><path d="M233.7 447L299.7 502L312.6 440Z" fill="#131313" stroke="#131313"></path><path d="M238.7 378L248.7 386L262.7 322Z" fill="#1f1f1f" stroke="#1f1f1f"></path><path d="M257.7 82L224.8 175L298.7 147Z" fill="#040404" stroke="#040404"></path><path d="M218.8 371L238.7 378L262.7 322Z" fill="#101010" stroke="#101010"></path><path d="M486.5 559L534.4 529L510.4 509Z" fill="#0d0d0d" stroke="#0d0d0d"></path><path d="M510.4 509L534.4 529L562.4 480Z" fill="#0d0d0d" stroke="#0d0d0d"></path><path d="M616.3 475L709.2 443L698.2 424Z" fill="#181818" stroke="#181818"></path><path d="M195.8 267L257.7 198L226.8 182Z" fill="#101010" stroke="#101010"></path><path d="M248.7 386L233.8 417L294.6 422Z" fill="#181818" stroke="#181818"></path><path d="M670.2 0L607.3 0L661.3 75Z" fill="#1d1d1d" stroke="#1d1d1d"></path><path d="M734.2 75L700.2 69L684.2 76Z" fill="#181818" stroke="#181818"></path><path d="M684.2 76L670.2 0L661.3 75Z" fill="#161616" stroke="#161616"></path><path d="M784.1 229L728.2 221L803.1 291Z" fill="#1f1f1f" stroke="#1f1f1f"></path><path d="M728.2 221L765.2 190L722.2 162Z" fill="#131313" stroke="#131313"></path><path d="M722.2 162L756.1 114L684.2 76Z" fill="#090909" stroke="#090909"></path><path d="M762.2 431L764.2 336L684.2 371Z" fill="#181818" stroke="#181818"></path><path d="M704.2 500L709.2 443L616.3 475Z" fill="#1d1d1d" stroke="#1d1d1d"></path><path d="M698.2 424L762.2 431L684.2 371Z" fill="#000000" stroke="#000000"></path><path d="M292.6 21L257.7 82L294.7 77Z" fill="#1d1d1d" stroke="#1d1d1d"></path><path d="M294.7 77L257.7 82L298.7 147Z" fill="#0d0d0d" stroke="#0d0d0d"></path><path d="M184.8 271L195.8 267L177.8 178Z" fill="#101010" stroke="#101010"></path><path d="M175.8 353L218.8 371L262.7 322Z" fill="#1a1a1a" stroke="#1a1a1a"></path><path d="M238.7 378L233.8 417L248.7 386Z" fill="#090909" stroke="#090909"></path><path d="M803.1 291L728.2 221L703.2 315Z" fill="#000000" stroke="#000000"></path><path d="M772.1 125L722.2 162L765.2 190Z" fill="#040404" stroke="#040404"></path><path d="M772.1 125L756.1 114L722.2 162Z" fill="#0d0d0d" stroke="#0d0d0d"></path><path d="M756.1 114L734.2 75L684.2 76Z" fill="#000000" stroke="#000000"></path><path d="M700.2 69L670.2 0L684.2 76Z" fill="#131313" stroke="#131313"></path><path d="M218.8 371L233.8 417L238.7 378Z" fill="#000000" stroke="#000000"></path><path d="M393.5 571L454.5 515L401.5 484Z" fill="#1d1d1d" stroke="#1d1d1d"></path><path d="M337.6 519L396.6 476L312.6 440Z" fill="#1a1a1a" stroke="#1a1a1a"></path><path d="M454.5 515L486.5 559L510.4 509Z" fill="#161616" stroke="#161616"></path><path d="M596.4 578L616.3 475L562.4 480Z" fill="#181818" stroke="#181818"></path><path d="M299.7 502L337.6 519L312.6 440Z" fill="#161616" stroke="#161616"></path><path d="M177.8 178L195.8 267L226.8 182Z" fill="#1d1d1d" stroke="#1d1d1d"></path><path d="M195.8 267L182.8 276L262.7 322Z" fill="#1f1f1f" stroke="#1f1f1f"></path><path d="M192.8 456L233.7 447L233.8 417Z" fill="#101010" stroke="#101010"></path><path d="M177.8 178L226.8 182L224.8 175Z" fill="#000000" stroke="#000000"></path><path d="M394.5 0L292.6 21L373.6 35Z" fill="#040404" stroke="#040404"></path><path d="M98.9 295L182.8 276L184.8 271Z" fill="#1a1a1a" stroke="#1a1a1a"></path><path d="M184.8 271L182.8 276L195.8 267Z" fill="#181818" stroke="#181818"></path><path d="M304.6 536L338.6 523L337.6 519Z" fill="#0d0d0d" stroke="#0d0d0d"></path><path d="M337.6 519L338.6 523L401.5 484Z" fill="#1f1f1f" stroke="#1f1f1f"></path><path d="M815.1 209L772.1 125L765.2 190Z" fill="#181818" stroke="#181818"></path><path d="M756.1 114L771.2 72L734.2 75Z" fill="#1f1f1f" stroke="#1f1f1f"></path><path d="M233.7 447L312.6 440L294.6 422Z" fill="#101010" stroke="#101010"></path><path d="M735.2 0L670.2 0L700.2 69Z" fill="#1f1f1f" stroke="#1f1f1f"></path><path d="M646.3 548L648.3 527L596.4 578Z" fill="#090909" stroke="#090909"></path><path d="M817.1 318L803.1 291L764.2 336Z" fill="#0d0d0d" stroke="#0d0d0d"></path><path d="M764.2 336L803.1 291L703.2 315Z" fill="#1a1a1a" stroke="#1a1a1a"></path><path d="M784.1 229L815.1 209L765.2 190Z" fill="#131313" stroke="#131313"></path><path d="M192.8 456L233.8 417L168.8 430Z" fill="#0d0d0d" stroke="#0d0d0d"></path><path d="M233.8 417L233.7 447L294.6 422Z" fill="#1f1f1f" stroke="#1f1f1f"></path><path d="M193.8 129L224.8 175L257.7 82Z" fill="#1f1f1f" stroke="#1f1f1f"></path><path d="M193.8 129L177.8 178L224.8 175Z" fill="#040404" stroke="#040404"></path><path d="M212.8 82L193.8 129L257.7 82Z" fill="#090909" stroke="#090909"></path><path d="M761.2 456L762.2 431L709.2 443Z" fill="#101010" stroke="#101010"></path><path d="M709.2 443L762.2 431L698.2 424Z" fill="#090909" stroke="#090909"></path><path d="M304.6 536L373.6 558L338.6 523Z" fill="#131313" stroke="#131313"></path><path d="M338.6 523L373.6 558L401.5 484Z" fill="#101010" stroke="#101010"></path><path d="M672.2 527L704.2 500L616.3 475Z" fill="#040404" stroke="#040404"></path><path d="M188.8 59L212.8 82L257.7 82Z" fill="#0d0d0d" stroke="#0d0d0d"></path><path d="M646.3 548L672.2 527L648.3 527Z" fill="#161616" stroke="#161616"></path><path d="M648.3 527L672.2 527L616.3 475Z" fill="#0d0d0d" stroke="#0d0d0d"></path><path d="M394.5 0L283.7 0L292.6 21Z" fill="#101010" stroke="#101010"></path><path d="M292.6 21L279.6 0L257.7 82Z" fill="#000000" stroke="#000000"></path><path d="M822.1 219L815.1 209L784.1 229Z" fill="#1f1f1f" stroke="#1f1f1f"></path><path d="M165.8 344L175.8 353L182.8 276Z" fill="#090909" stroke="#090909"></path><path d="M182.8 276L175.8 353L262.7 322Z" fill="#000000" stroke="#000000"></path><path d="M283.7 0L279.6 0L292.6 21Z" fill="#000000" stroke="#000000"></path><path d="M373.6 558L393.5 571L401.5 484Z" fill="#131313" stroke="#131313"></path><path d="M596.4 578L562.4 480L534.4 529Z" fill="#101010" stroke="#101010"></path><path d="M596.4 578L534.4 529L558.4 600Z" fill="#040404" stroke="#040404"></path><path d="M820.1 413L817.1 318L764.2 336Z" fill="#181818" stroke="#181818"></path><path d="M803.1 291L822.1 219L784.1 229Z" fill="#0d0d0d" stroke="#0d0d0d"></path><path d="M836.1 217L822.1 219L803.1 291Z" fill="#090909" stroke="#090909"></path><path d="M788.1 81L756.1 114L772.1 125Z" fill="#000000" stroke="#000000"></path><path d="M788.1 81L771.2 72L756.1 114Z" fill="#181818" stroke="#181818"></path><path d="M734.2 75L735.2 0L700.2 69Z" fill="#131313" stroke="#131313"></path><path d="M788.1 81L772.1 125L839.1 68Z" fill="#090909" stroke="#090909"></path><path d="M147.8 331L165.8 344L182.8 276Z" fill="#181818" stroke="#181818"></path><path d="M168.8 430L233.8 417L218.8 371Z" fill="#0d0d0d" stroke="#0d0d0d"></path><path d="M701.2 582L707.2 512L672.2 527Z" fill="#101010" stroke="#101010"></path><path d="M672.2 527L707.2 512L704.2 500Z" fill="#1f1f1f" stroke="#1f1f1f"></path><path d="M704.2 500L761.2 456L709.2 443Z" fill="#1a1a1a" stroke="#1a1a1a"></path><path d="M299.7 502L304.6 536L337.6 519Z" fill="#1d1d1d" stroke="#1d1d1d"></path><path d="M373.6 558L390.6 600L393.5 571Z" fill="#1f1f1f" stroke="#1f1f1f"></path><path d="M278.7 548L304.6 536L299.7 502Z" fill="#0d0d0d" stroke="#0d0d0d"></path><path d="M707.2 512L761.2 456L704.2 500Z" fill="#101010" stroke="#101010"></path><path d="M762.2 431L820.1 413L764.2 336Z" fill="#1a1a1a" stroke="#1a1a1a"></path><path d="M558.4 600L534.4 529L486.5 559Z" fill="#090909" stroke="#090909"></path><path d="M646.3 548L701.2 582L672.2 527Z" fill="#0d0d0d" stroke="#0d0d0d"></path><path d="M878.1 181L772.1 125L815.1 209Z" fill="#040404" stroke="#040404"></path><path d="M771.2 72L735.2 0L734.2 75Z" fill="#040404" stroke="#040404"></path><path d="M444.5 600L484.5 600L486.5 559Z" fill="#040404" stroke="#040404"></path><path d="M900 262L836.1 217L803.1 291Z" fill="#131313" stroke="#131313"></path><path d="M822.1 219L836.1 217L815.1 209Z" fill="#181818" stroke="#181818"></path><path d="M390.6 600L444.5 600L393.5 571Z" fill="#161616" stroke="#161616"></path><path d="M393.5 571L444.5 600L454.5 515Z" fill="#1d1d1d" stroke="#1d1d1d"></path><path d="M98.9 295L147.8 331L182.8 276Z" fill="#1a1a1a" stroke="#1a1a1a"></path><path d="M168.8 430L218.8 371L175.8 353Z" fill="#101010" stroke="#101010"></path><path d="M484.5 600L558.4 600L486.5 559Z" fill="#000000" stroke="#000000"></path><path d="M188.8 59L162.8 122L212.8 82Z" fill="#0d0d0d" stroke="#0d0d0d"></path><path d="M212.8 82L162.8 122L193.8 129Z" fill="#0d0d0d" stroke="#0d0d0d"></path><path d="M193.8 129L162.8 122L177.8 178Z" fill="#1d1d1d" stroke="#1d1d1d"></path><path d="M177.8 178L128.9 198L184.8 271Z" fill="#040404" stroke="#040404"></path><path d="M809.1 0L735.2 0L771.2 72Z" fill="#090909" stroke="#090909"></path><path d="M168.8 430L175.8 353L107.9 371Z" fill="#090909" stroke="#090909"></path><path d="M224.8 527L278.7 548L299.7 502Z" fill="#090909" stroke="#090909"></path><path d="M279.6 600L373.6 558L304.6 536Z" fill="#1f1f1f" stroke="#1f1f1f"></path><path d="M279.6 600L390.6 600L373.6 558Z" fill="#101010" stroke="#101010"></path><path d="M279.6 0L188.8 59L257.7 82Z" fill="#101010" stroke="#101010"></path><path d="M822.1 477L802.1 434L761.2 456Z" fill="#161616" stroke="#161616"></path><path d="M761.2 456L802.1 434L762.2 431Z" fill="#040404" stroke="#040404"></path><path d="M817.1 318L862.1 320L803.1 291Z" fill="#161616" stroke="#161616"></path><path d="M224.8 527L299.7 502L233.7 447Z" fill="#1d1d1d" stroke="#1d1d1d"></path><path d="M558.4 600L600.4 600L596.4 578Z" fill="#0d0d0d" stroke="#0d0d0d"></path><path d="M596.4 578L629.3 600L646.3 548Z" fill="#040404" stroke="#040404"></path><path d="M822.1 477L823.1 422L802.1 434Z" fill="#040404" stroke="#040404"></path><path d="M72.9 232L128.9 198L68.9 159Z" fill="#1f1f1f" stroke="#1f1f1f"></path><path d="M162.8 122L128.9 198L177.8 178Z" fill="#161616" stroke="#161616"></path><path d="M107.9 371L175.8 353L165.8 344Z" fill="#1a1a1a" stroke="#1a1a1a"></path><path d="M802.1 434L820.1 413L762.2 431Z" fill="#040404" stroke="#040404"></path><path d="M802.1 434L819.1 417L820.1 413Z" fill="#1f1f1f" stroke="#1f1f1f"></path><path d="M168.8 430L186.8 469L192.8 456Z" fill="#090909" stroke="#090909"></path><path d="M192.8 456L186.8 469L233.7 447Z" fill="#0d0d0d" stroke="#0d0d0d"></path><path d="M600.4 600L629.3 600L596.4 578Z" fill="#090909" stroke="#090909"></path><path d="M822.1 477L761.2 456L775.1 557Z" fill="#000000" stroke="#000000"></path><path d="M802.1 434L823.1 422L819.1 417Z" fill="#090909" stroke="#090909"></path><path d="M819.1 417L823.1 422L820.1 413Z" fill="#090909" stroke="#090909"></path><path d="M857.1 379L862.1 320L817.1 318Z" fill="#090909" stroke="#090909"></path><path d="M185.8 0L179.8 42L188.8 59Z" fill="#040404" stroke="#040404"></path><path d="M188.8 59L109.9 52L162.8 122Z" fill="#181818" stroke="#181818"></path><path d="M857.1 379L817.1 318L820.1 413Z" fill="#0d0d0d" stroke="#0d0d0d"></path><path d="M186.8 469L224.8 527L233.7 447Z" fill="#101010" stroke="#101010"></path><path d="M278.7 548L279.6 600L304.6 536Z" fill="#000000" stroke="#000000"></path><path d="M823.1 422L857.1 379L820.1 413Z" fill="#0d0d0d" stroke="#0d0d0d"></path><path d="M629.3 600L701.2 582L646.3 548Z" fill="#090909" stroke="#090909"></path><path d="M900 445L900 377L857.1 379Z" fill="#0d0d0d" stroke="#0d0d0d"></path><path d="M128.9 198L98.9 295L184.8 271Z" fill="#1f1f1f" stroke="#1f1f1f"></path><path d="M147.8 331L107.9 371L165.8 344Z" fill="#101010" stroke="#101010"></path><path d="M168.8 430L85.9 481L186.8 469Z" fill="#0d0d0d" stroke="#0d0d0d"></path><path d="M900 216L878.1 181L836.1 217Z" fill="#0d0d0d" stroke="#0d0d0d"></path><path d="M836.1 217L878.1 181L815.1 209Z" fill="#181818" stroke="#181818"></path><path d="M788.1 81L809.1 0L771.2 72Z" fill="#090909" stroke="#090909"></path><path d="M900 262L803.1 291L862.1 320Z" fill="#131313" stroke="#131313"></path><path d="M900 130L839.1 68L772.1 125Z" fill="#1d1d1d" stroke="#1d1d1d"></path><path d="M279.6 0L185.8 0L188.8 59Z" fill="#131313" stroke="#131313"></path><path d="M68.9 159L128.9 198L162.8 122Z" fill="#1d1d1d" stroke="#1d1d1d"></path><path d="M128.9 198L72.9 232L98.9 295Z" fill="#090909" stroke="#090909"></path><path d="M98.9 295L107.9 371L147.8 331Z" fill="#040404" stroke="#040404"></path><path d="M186.8 469L199.8 537L224.8 527Z" fill="#161616" stroke="#161616"></path><path d="M775.1 557L761.2 456L707.2 512Z" fill="#181818" stroke="#181818"></path><path d="M185.8 0L181.8 0L179.8 42Z" fill="#131313" stroke="#131313"></path><path d="M269.7 600L279.6 600L278.7 548Z" fill="#000000" stroke="#000000"></path><path d="M128.9 537L199.8 537L186.8 469Z" fill="#040404" stroke="#040404"></path><path d="M218.8 600L269.7 600L278.7 548Z" fill="#040404" stroke="#040404"></path><path d="M839.1 68L809.1 0L788.1 81Z" fill="#0d0d0d" stroke="#0d0d0d"></path><path d="M218.8 600L278.7 548L224.8 527Z" fill="#090909" stroke="#090909"></path><path d="M900 304L862.1 320L900 327Z" fill="#161616" stroke="#161616"></path><path d="M900 304L900 262L862.1 320Z" fill="#101010" stroke="#101010"></path><path d="M79.9 374L97.9 377L107.9 371Z" fill="#161616" stroke="#161616"></path><path d="M107.9 371L97.9 377L168.8 430Z" fill="#161616" stroke="#161616"></path><path d="M900 262L900 216L836.1 217Z" fill="#0d0d0d" stroke="#0d0d0d"></path><path d="M878.1 181L900 130L772.1 125Z" fill="#181818" stroke="#181818"></path><path d="M900 327L862.1 320L857.1 379Z" fill="#181818" stroke="#181818"></path><path d="M629.3 600L718.2 600L701.2 582Z" fill="#1f1f1f" stroke="#1f1f1f"></path><path d="M701.2 582L775.1 557L707.2 512Z" fill="#000000" stroke="#000000"></path><path d="M718.2 600L775.1 557L701.2 582Z" fill="#181818" stroke="#181818"></path><path d="M900 377L900 327L857.1 379Z" fill="#181818" stroke="#181818"></path><path d="M109.9 52L188.8 59L179.8 42Z" fill="#0d0d0d" stroke="#0d0d0d"></path><path d="M98.9 295L79.9 374L107.9 371Z" fill="#040404" stroke="#040404"></path><path d="M73.9 373L79.9 374L98.9 295Z" fill="#131313" stroke="#131313"></path><path d="M97.9 377L84.9 450L168.8 430Z" fill="#1a1a1a" stroke="#1a1a1a"></path><path d="M900 445L857.1 379L823.1 422Z" fill="#090909" stroke="#090909"></path><path d="M900 445L823.1 422L822.1 477Z" fill="#181818" stroke="#181818"></path><path d="M900 216L900 130L878.1 181Z" fill="#0d0d0d" stroke="#0d0d0d"></path><path d="M839.1 68L870.1 38L809.1 0Z" fill="#1f1f1f" stroke="#1f1f1f"></path><path d="M121.9 0L109.9 52L179.8 42Z" fill="#000000" stroke="#000000"></path><path d="M88.9 72L68.9 159L162.8 122Z" fill="#090909" stroke="#090909"></path><path d="M0 328L73.9 373L98.9 295Z" fill="#1a1a1a" stroke="#1a1a1a"></path><path d="M48.9 269L98.9 295L72.9 232Z" fill="#090909" stroke="#090909"></path><path d="M57.9 433L84.9 450L97.9 377Z" fill="#090909" stroke="#090909"></path><path d="M900 80L870.1 38L839.1 68Z" fill="#1f1f1f" stroke="#1f1f1f"></path><path d="M718.2 600L759.2 600L775.1 557Z" fill="#101010" stroke="#101010"></path><path d="M860.1 526L900 445L822.1 477Z" fill="#000000" stroke="#000000"></path><path d="M199.8 537L218.8 600L224.8 527Z" fill="#1a1a1a" stroke="#1a1a1a"></path><path d="M159.8 575L218.8 600L199.8 537Z" fill="#1f1f1f" stroke="#1f1f1f"></path><path d="M109.9 52L88.9 72L162.8 122Z" fill="#0d0d0d" stroke="#0d0d0d"></path><path d="M46.9 262L48.9 269L72.9 232Z" fill="#000000" stroke="#000000"></path><path d="M759.2 600L765.1 600L775.1 557Z" fill="#1a1a1a" stroke="#1a1a1a"></path><path d="M900 130L900 91L839.1 68Z" fill="#101010" stroke="#101010"></path><path d="M88.9 72L58.9 153L68.9 159Z" fill="#161616" stroke="#161616"></path><path d="M68.9 159L17.9 202L72.9 232Z" fill="#131313" stroke="#131313"></path><path d="M17.9 202L46.9 262L72.9 232Z" fill="#1d1d1d" stroke="#1d1d1d"></path><path d="M85.9 481L84.9 450L57.9 433Z" fill="#090909" stroke="#090909"></path><path d="M900 91L900 80L839.1 68Z" fill="#131313" stroke="#131313"></path><path d="M77.9 33L65.9 74L88.9 72Z" fill="#161616" stroke="#161616"></path><path d="M181.8 0L121.9 0L179.8 42Z" fill="#000000" stroke="#000000"></path><path d="M79.9 374L73.9 373L57.9 433Z" fill="#1f1f1f" stroke="#1f1f1f"></path><path d="M57.9 433L97.9 377L79.9 374Z" fill="#040404" stroke="#040404"></path><path d="M900 0L861.1 0L870.1 38Z" fill="#1a1a1a" stroke="#1a1a1a"></path><path d="M870.1 38L861.1 0L809.1 0Z" fill="#1a1a1a" stroke="#1a1a1a"></path><path d="M860.1 526L822.1 477L775.1 557Z" fill="#161616" stroke="#161616"></path><path d="M85.9 481L128.9 537L186.8 469Z" fill="#0d0d0d" stroke="#0d0d0d"></path><path d="M810.1 600L860.1 526L775.1 557Z" fill="#0d0d0d" stroke="#0d0d0d"></path><path d="M128.9 537L159.8 575L199.8 537Z" fill="#181818" stroke="#181818"></path><path d="M77.9 33L88.9 72L109.9 52Z" fill="#1f1f1f" stroke="#1f1f1f"></path><path d="M88.9 72L65.9 74L58.9 153Z" fill="#1a1a1a" stroke="#1a1a1a"></path><path d="M58.9 153L17.9 202L68.9 159Z" fill="#0d0d0d" stroke="#0d0d0d"></path><path d="M84.9 450L85.9 481L168.8 430Z" fill="#101010" stroke="#101010"></path><path d="M57.9 433L73.9 373L0 363Z" fill="#0d0d0d" stroke="#0d0d0d"></path><path d="M0 328L98.9 295L48.9 269Z" fill="#1f1f1f" stroke="#1f1f1f"></path><path d="M121.9 0L77.9 33L109.9 52Z" fill="#131313" stroke="#131313"></path><path d="M765.1 600L810.1 600L775.1 557Z" fill="#161616" stroke="#161616"></path><path d="M0 521L86.9 499L85.9 481Z" fill="#1a1a1a" stroke="#1a1a1a"></path><path d="M85.9 481L86.9 499L128.9 537Z" fill="#040404" stroke="#040404"></path><path d="M125.9 600L160.8 600L159.8 575Z" fill="#0d0d0d" stroke="#0d0d0d"></path><path d="M17.9 202L0 176L0 183Z" fill="#1d1d1d" stroke="#1d1d1d"></path><path d="M0 212L17.9 202L0 183Z" fill="#040404" stroke="#040404"></path><path d="M46.9 262L0 295L48.9 269Z" fill="#1f1f1f" stroke="#1f1f1f"></path><path d="M159.8 575L160.8 600L218.8 600Z" fill="#131313" stroke="#131313"></path><path d="M125.9 600L159.8 575L128.9 537Z" fill="#131313" stroke="#131313"></path><path d="M121.9 0L85.9 0L77.9 33Z" fill="#101010" stroke="#101010"></path><path d="M17.9 202L58.9 153L0 176Z" fill="#101010" stroke="#101010"></path><path d="M900 557L883.1 534L860.1 526Z" fill="#1f1f1f" stroke="#1f1f1f"></path><path d="M860.1 526L900 527L900 445Z" fill="#1a1a1a" stroke="#1a1a1a"></path><path d="M900 80L900 0L870.1 38Z" fill="#181818" stroke="#181818"></path><path d="M0 212L0 295L46.9 262Z" fill="#000000" stroke="#000000"></path><path d="M58.9 153L0 104L0 176Z" fill="#000000" stroke="#000000"></path><path d="M17.9 202L0 212L46.9 262Z" fill="#1f1f1f" stroke="#1f1f1f"></path><path d="M900 557L900 527L883.1 534Z" fill="#1d1d1d" stroke="#1d1d1d"></path><path d="M883.1 534L900 527L860.1 526Z" fill="#1d1d1d" stroke="#1d1d1d"></path><path d="M58.9 153L65.9 74L0 104Z" fill="#000000" stroke="#000000"></path><path d="M0 295L0 328L48.9 269Z" fill="#1a1a1a" stroke="#1a1a1a"></path><path d="M57.9 433L0 444L85.9 481Z" fill="#1a1a1a" stroke="#1a1a1a"></path><path d="M0 104L65.9 74L0 79Z" fill="#0d0d0d" stroke="#0d0d0d"></path><path d="M71.9 578L128.9 537L86.9 499Z" fill="#161616" stroke="#161616"></path><path d="M71.9 578L125.9 600L128.9 537Z" fill="#1f1f1f" stroke="#1f1f1f"></path><path d="M0 328L0 363L73.9 373Z" fill="#040404" stroke="#040404"></path><path d="M810.1 600L900 557L860.1 526Z" fill="#0d0d0d" stroke="#0d0d0d"></path><path d="M0 79L65.9 74L77.9 33Z" fill="#181818" stroke="#181818"></path><path d="M0 0L0 79L77.9 33Z" fill="#1d1d1d" stroke="#1d1d1d"></path><path d="M0 363L0 444L57.9 433Z" fill="#090909" stroke="#090909"></path><path d="M0 531L71.9 578L86.9 499Z" fill="#0d0d0d" stroke="#0d0d0d"></path><path d="M810.1 600L900 600L900 557Z" fill="#1a1a1a" stroke="#1a1a1a"></path><path d="M85.9 0L0 0L77.9 33Z" fill="#0d0d0d" stroke="#0d0d0d"></path><path d="M0 444L0 521L85.9 481Z" fill="#1a1a1a" stroke="#1a1a1a"></path><path d="M0 521L0 531L86.9 499Z" fill="#1f1f1f" stroke="#1f1f1f"></path><path d="M0 531L26.9 600L71.9 578Z" fill="#1a1a1a" stroke="#1a1a1a"></path><path d="M71.9 578L26.9 600L125.9 600Z" fill="#1d1d1d" stroke="#1d1d1d"></path><path d="M0 531L0 600L26.9 600Z" fill="#1f1f1f" stroke="#1f1f1f"></path></g></svg>